PathFileType	4	(X/Y/Z)	C:/Users/Carlo/Dropbox/Carlos/SARAH/CongressoMarcha2025/WorkshopOpenSim/C3D/Caso01/Cal 01.c3d.trc
DataRate	CameraRate	NumFrames	NumMarkers	Units	OrigDataRate	OrigDataStartFrame	OrigNumFrames
100.000000	100.000000	4	70	mm	100.000000	89	178
Frame#	Time	LASI			RASI			LPSI			RPSI			LTHI			LKNE			LTIB			LANK			LHEE			LTOE			RTHI			RKNE			RTIB			RANK			RHEE			RTOE			PELO			PELA			PELL			PELP			LFEO			LFEA			LFEL			LFEP			LTIO			LTIA			LTIL			LTIP			LFOO			LFOA			LFOL			LFOP			LTOO			LTOA			LTOL			LTOP			RFEO			RFEA			RFEL			RFEP			RTIO			RTIA			RTIL			RTIP			RFOO			RFOA			RFOL			RFOP			RTOO			RTOA			RTOL			RTOP			LHipAngles			LKneeAngles			LAbsAnkleAngle			LAnkleAngles			RHipAngles			RKneeAngles			RAnkleAngles			RAbsAnkleAngle			LPelvisAngles			RPelvisAngles			LFootProgressAngles			RFootProgressAngles			LHJC			RHJC			LKJC			RKJC			LAJC			RAJC			
		X1	Y1	Z1	X2	Y2	Z2	X3	Y3	Z3	X4	Y4	Z4	X5	Y5	Z5	X6	Y6	Z6	X7	Y7	Z7	X8	Y8	Z8	X9	Y9	Z9	X10	Y10	Z10	X11	Y11	Z11	X12	Y12	Z12	X13	Y13	Z13	X14	Y14	Z14	X15	Y15	Z15	X16	Y16	Z16	X17	Y17	Z17	X18	Y18	Z18	X19	Y19	Z19	X20	Y20	Z20	X21	Y21	Z21	X22	Y22	Z22	X23	Y23	Z23	X24	Y24	Z24	X25	Y25	Z25	X26	Y26	Z26	X27	Y27	Z27	X28	Y28	Z28	X29	Y29	Z29	X30	Y30	Z30	X31	Y31	Z31	X32	Y32	Z32	X33	Y33	Z33	X34	Y34	Z34	X35	Y35	Z35	X36	Y36	Z36	X37	Y37	Z37	X38	Y38	Z38	X39	Y39	Z39	X40	Y40	Z40	X41	Y41	Z41	X42	Y42	Z42	X43	Y43	Z43	X44	Y44	Z44	X45	Y45	Z45	X46	Y46	Z46	X47	Y47	Z47	X48	Y48	Z48	X49	Y49	Z49	X50	Y50	Z50	X51	Y51	Z51	X52	Y52	Z52	X53	Y53	Z53	X54	Y54	Z54	X55	Y55	Z55	X56	Y56	Z56	X57	Y57	Z57	X58	Y58	Z58	X59	Y59	Z59	X60	Y60	Z60	X61	Y61	Z61	X62	Y62	Z62	X63	Y63	Z63	X64	Y64	Z64	X65	Y65	Z65	X66	Y66	Z66	X67	Y67	Z67	X68	Y68	Z68	X69	Y69	Z69	X70	Y70	Z70	

90	0.89	58.22166824340823	1047.227172851563	-310.3079833984376	73.52458190917972	1056.969970703125	-523.403259277344	252.1767730712892	1063.197021484375	-342.089080810547	265.2097167968751	1064.235961914063	-453.4597778320315	121.1848297119141	749.6182861328127	-216.2563781738282	125.6942977905274	539.2678222656252	-251.9235839843751	157.5668029785157	302.7224426269532	-218.9659423828126	175.8685607910157	100.0868530273438	-223.4052734375001	238.5087738037111	55.98206710815433	-265.4866943359376	12.9561243057251	63.14767837524417	-247.7221679687501	127.5435867309571	817.0360717773442	-611.712341308594	117.7980651855469	537.7181396484377	-575.1228637695315	149.7030944824219	383.7686462402345	-604.4674072265627	179.8895568847657	96.66077423095709	-598.924987792969	246.2570800781251	58.90862655639651	-553.601257324219	21.77507400512696	62.82392501831058	-576.8811035156252	119.0166702270508	958.1933593750005	-417.3326416015627	-9.313377380371097	950.3327026367192	-426.9077453613284	109.7914810180665	952.3200073242192	-288.8706665039064	110.7481689453126	1086.745971679688	-412.0489196777346	125.0187149047852	533.304626464844	-309.612274169922	-299.1561889648439	523.1916503906252	-303.5993957519532	129.9614562988282	576.9323730468752	112.4481201171876	114.3418350219727	955.272827148438	-353.105438232422	170.8036499023438	95.32331848144534	-268.3708801269532	-246.1883544921876	56.54218673706058	-217.2926025390626	217.7676696777345	139.4928131103516	148.5688171386719	127.1304550170899	513.1035766601565	-307.7100830078126	16.41176223754884	87.57098388671878	-240.4521484375001	21.47494125366212	305.6269531250001	-264.1227416992189	34.27353668212892	110.7593383789063	-23.01803588867188	235.020233154297	80.62596130371097	-257.6697387695314	-56.45772171020511	89.88598632812503	-234.7129516601564	-54.76998519897464	162.5713043212891	-242.6031494140626	-50.50378417968753	97.6154403686524	-162.2349243164063	16.41176223754884	87.57096862792972	-240.4521636962892	114.290397644043	532.9134521484377	-518.4341430664065	-314.679901123047	544.532409667969	-543.9924316406252	87.835807800293	496.6767578125002	-90.89370727539065	123.6914978027344	961.1139526367192	-481.5598144531252	170.3734741210938	91.83567047119143	-553.6655883789065	-243.1777343750001	46.5833206176758	-645.441833496094	83.18919372558597	47.62918853759767	-139.0092163085938	116.8052368164063	513.1351318359377	-520.0139770507815	17.34373474121094	81.88745117187503	-585.2830810546877	18.70247459411622	299.3051147460939	-561.8184814453127	-5.486846923828127	58.69171142578128	-369.0341796875001	234.8289031982423	78.09416961669925	-562.7288818359377	-55.15130996704104	83.15187072753909	-592.8011474609377	-54.69843292236331	155.6244201660157	-584.9796142578127	-62.76147460937503	75.41996002197268	-520.718200683594	17.34373855590821	81.88748168945315	-585.2830810546877	-8.373638153076175	-5.02930784225464	1.620181679725648	0.4504359364509585	-5.707982540130617	4.505700111389162	0	0	7.306346416473392	-1.519400924521186e-13	1.721859812736512	7.309659004211429	-2.20791244506836	0.6267693638801577	5.102311611175539	-0.1683373451232911	-8.369689941406254	8.482341766357425	1.262820414644345e-13	5.816369056701662	7.744243621826175	0	0	7.704138278961185	-2.348764181137086	4.262741565704347	3.680192947387697	2.348764181137086	-4.262741565704347	3.680192947387697	-6.21293926239014	-4.501058101654055	-91.81962585449222	-6.192777633666996	-5.919785022735597	-90.99922180175784	114.3418426513672	955.2727661132817	-353.105438232422	123.6914978027344	961.1139526367192	-481.5598449707034	125.0187149047852	533.304626464844	-309.612274169922	114.290397644043	532.9134521484377	-518.4341430664065	170.8036499023438	95.32331848144534	-268.3708801269532	170.3734741210938	91.83567047119143	-553.6655883789065	
91	0.9	58.27894592285159	1047.273071289063	-310.2940368652345	73.6027755737305	1056.978393554688	-523.364929199219	252.2771759033204	1063.21923828125	-342.0633239746095	265.2760620117189	1064.2333984375	-453.4246215820315	121.2730789184571	749.674743652344	-216.2369537353517	125.7495346069337	539.3377075195315	-251.9421234130861	157.5532379150391	302.7569580078126	-219.0482635498048	175.9237823486329	100.148536682129	-223.3933258056642	238.5403289794923	56.00476837158206	-265.499481201172	12.96602725982667	63.20241928100589	-247.7648010253907	127.5598068237305	817.036743164063	-611.6684570312502	117.7489852905274	537.7304687500002	-575.1296386718752	149.6846923828126	383.7666015625001	-604.4709472656252	179.9018859863282	96.68628692626959	-598.9202270507815	246.2782592773439	58.91560363769534	-553.5940551757815	21.82480812072755	62.84650421142581	-576.899108886719	119.0737304687501	958.2143554687505	-417.2858581542971	-9.256256103515629	950.366821289063	-426.8726501464846	109.8348922729493	952.3629760742192	-288.8238830566407	110.8193664550782	1086.768798828125	-412.0238952636721	125.0496063232422	533.382263183594	-309.631317138672	-299.0710449218751	523.3059082031252	-303.445281982422	130.1698303222657	576.9481201171877	112.3804626464844	114.3920669555665	955.304809570313	-353.0586547851564	170.9104766845704	95.38655090332034	-268.3648681640626	-246.1519012451173	56.48602294921878	-217.7527465820314	217.3986206054689	139.5442199707032	148.6541137695313	127.1647338867188	513.1816406250002	-307.7280883789064	16.51354408264161	87.65485382080081	-240.4683532714845	21.61126708984376	305.7113647460939	-264.1263732910157	34.34798812866212	110.8288040161133	-23.03045654296876	235.1234283447267	80.67947387695315	-257.6555175781251	-56.3564147949219	89.97999572753909	-234.7393188476564	-54.65716171264651	162.6654968261719	-242.6253356933595	-50.41163635253909	97.70466613769537	-162.2600250244141	16.51354217529298	87.65486145019534	-240.4683380126954	114.2445678710938	532.9194946289065	-518.4412231445315	-314.7357788085939	544.6486816406252	-543.9649047851565	87.8139343261719	496.634948730469	-90.8924255371094	123.7554016113282	961.123901367188	-481.5130920410159	170.3821563720704	91.86053466796878	-553.6616821289065	-243.1428680419923	46.5589942932129	-645.4732055664065	83.16714477539065	47.64942550659181	-139.0251464843751	116.7619018554688	513.141540527344	-520.0206298828127	17.35568428039551	81.92368316650393	-585.2984619140627	18.72639083862305	299.3406066894532	-561.8277587890627	-5.503408432006838	58.72358703613284	-369.0530395507814	234.8377532958986	78.11488342285159	-562.7172851562502	-55.13833618164065	83.19329071044925	-592.8255615234377	-54.68144989013675	155.6655883789063	-585.0020141601565	-62.7580490112305	75.45992279052737	-520.7437744140627	17.35569000244141	81.92370605468753	-585.2984619140627	-8.355692863464359	-5.058508872985842	1.616831660270692	0.4371704161167147	-5.61945962905884	4.517735958099367	0	0	7.324325084686283	8.591118403700545e-14	1.66362750530243	7.327445507049564	-2.223521232604981	0.6370980739593508	5.112049579620363	-0.1609343439340592	-8.376823425292972	8.504678726196293	4.236020713886681e-13	5.813433647155763	7.755012035369877	0	0	7.714882373809818	-2.339104652404786	4.267934799194338	3.673861503601076	2.339104652404786	-4.267934799194338	3.673861503601076	-6.209567070007328	-4.493077278137209	-91.82758331298831	-6.194471836090091	-5.92689085006714	-91.00332641601565	114.3920669555665	955.304809570313	-353.0586242675782	123.7553863525391	961.1240234375005	-481.5130920410159	125.0496063232422	533.382263183594	-309.631317138672	114.2445678710938	532.9195556640627	-518.4412841796877	170.9104766845704	95.38655090332034	-268.3648681640626	170.3821563720704	91.86054229736331	-553.6616210937502	
92	0.91	58.24898910522464	1047.23828125	-310.2620849609376	73.61393737792972	1056.896118164063	-523.260192871094	252.361541748047	1063.22607421875	-342.0696411132814	265.3290405273439	1064.240600585938	-453.4205322265627	121.2226181030274	749.540222167969	-216.2501373291017	125.6437072753907	539.2039794921877	-251.9064025878907	157.4481964111329	302.6998596191407	-219.0014801025392	175.7892761230469	100.0179595947266	-223.4343566894532	238.5536346435548	56.02639007568362	-265.5061950683595	12.92427444458009	63.17038726806643	-247.7393951416017	127.509262084961	816.969848632813	-611.6052856445315	117.7041015625001	537.6599731445315	-575.0682373046877	149.6126098632813	383.6907958984376	-604.400573730469	179.8891906738282	96.61653137207037	-598.883239746094	246.2749481201173	58.9352722167969	-553.6355590820315	21.79124069213868	62.788932800293	-576.854919433594	119.0893554687501	958.1698608398442	-417.1840515136721	-9.236328125000004	950.2860717773442	-426.7984619140627	109.822624206543	952.345092773438	-288.722869873047	110.7996826171876	1086.723266601563	-411.9530944824221	124.9412918090821	533.258972167969	-309.596649169922	-299.2639770507814	523.2928466796877	-303.4046020507814	130.0807189941407	576.7568969726565	112.5043640136719	114.3937225341797	955.273559570313	-352.9572143554689	170.7575073242188	95.262321472168	-268.404510498047	-246.2796020507814	56.41340255737308	-217.6334686279298	217.4155883789064	139.3599853515626	148.5910644531251	127.0544128417969	513.0577392578127	-307.6967773437501	16.36568069458009	87.49024200439456	-240.4909820556642	21.40974044799805	305.5516052246095	-264.1155395507814	34.22039031982423	110.6343841552735	-23.05160522460938	234.9751434326173	80.56852722167972	-257.705047607422	-56.5041427612305	89.79748535156253	-234.7529754638673	-54.82273864746097	162.4846191406251	-242.6278533935548	-50.5525932312012	97.51224517822271	-162.273178100586	16.36568450927735	87.49021148681643	-240.4909515380861	114.231559753418	532.8435058593752	-518.378356933594	-314.7849121093751	544.5970458984377	-543.6591796875002	88.04000091552737	496.5155944824221	-90.79592895507815	123.7849731445313	961.066040039063	-481.4108581542971	170.4112243652344	91.79264831542972	-553.6157226562502	-243.1876831054689	46.41475296020509	-645.0494384765627	83.57896423339847	47.59877395629884	-138.8984375000001	116.7507858276368	513.065856933594	-519.9584960937502	17.37563705444337	81.80093383789065	-585.1911621093752	18.6832618713379	299.2212219238282	-561.748229980469	-5.390817642211916	58.6203536987305	-368.9338378906251	234.8677978515626	78.06726074218753	-562.6949462890627	-55.12175750732425	83.04547882080081	-592.689880371094	-54.68587875366214	155.5189208984376	-584.8755493164065	-62.7105407714844	75.31858825683597	-520.6041259765627	17.37564086914063	81.80091857910159	-585.1911621093752	-8.334376335144047	-5.070497989654543	1.647791028022767	0.4362808763980868	-5.640590190887453	4.527205467224123	0	0	7.304792404174808	-2.084160887491985e-13	1.681700468063355	7.307962417602543	-2.239627599716187	0.6822746396064761	5.135191917419435	-0.1541399508714676	-8.355436325073246	8.515995025634769	6.201864651174396e-13	5.785287857055666	7.742220878601078	0	0	7.702555656433109	-2.325294733047486	4.280217647552492	3.689569950103762	2.325294733047486	-4.280217647552492	3.689569950103762	-6.200809478759769	-4.50012254714966	-91.81352996826175	-6.186872482299808	-5.904496669769289	-90.9834899902344	114.3937377929688	955.273559570313	-352.957244873047	123.7849731445313	961.0661010742192	-481.410827636719	124.9412994384766	533.2589111328127	-309.5966186523439	114.231559753418	532.8435058593752	-518.378356933594	170.7575225830079	95.26232910156253	-268.404510498047	170.4112243652344	91.79264831542972	-553.6157226562502	
93	0.92	58.27277374267581	1047.150268554688	-310.2033996582032	73.59118652343753	1056.771118164063	-523.1724853515627	252.4222259521486	1063.227416992188	-342.0505676269532	265.3539428710939	1064.2255859375	-453.4084167480471	121.1696472167969	749.409851074219	-216.2491912841798	125.5529708862305	538.9965820312502	-251.9234771728517	157.3684387207032	302.5888977050782	-218.9777069091798	175.707015991211	99.88381195068365	-223.4342803955079	238.5819702148439	56.02906417846683	-265.508026123047	12.85799407958985	63.10769653320315	-247.7257690429689	127.4544906616212	816.8954467773442	-611.5244140625002	117.6396408081055	537.5726318359377	-574.9714965820315	149.5001983642579	383.6020812988282	-604.3259887695315	179.8170776367188	96.53993225097662	-598.8714599609377	246.2548980712892	58.93626403808597	-553.6423339843752	21.73456573486329	62.69262695312503	-576.7946777343752	119.1346588134766	958.0886840820317	-417.1018371582034	-9.189025878906254	950.1416625976567	-426.6908874511721	109.8945083618165	952.2853393554692	-288.6377868652345	110.784523010254	1086.63916015625	-411.895202636719	124.8732681274415	533.0678710937502	-309.6156616210939	-299.4433593750001	523.209167480469	-303.6033935546876	129.8477172851563	576.4573974609377	112.6053466796876	114.4523315429688	955.203002929688	-352.8735961914064	170.6788787841797	95.12612152099612	-268.4046325683595	-246.3094940185548	56.2861137390137	-217.6720123291017	217.2974548339845	139.2372436523438	148.5396728515626	126.9861602783204	512.8668212890627	-307.7147216796876	16.2904224395752	87.30745697021487	-240.4854278564454	21.26752090454102	305.3701171875001	-264.1121520996095	34.14598464965822	110.4589843750001	-23.04690551757813	234.901336669922	80.45185852050784	-257.7073364257814	-56.57988739013675	89.592643737793	-234.7447967529298	-54.92086410522464	162.2801818847657	-242.6203765869142	-50.62805175781253	97.30981445312506	-162.2652893066407	16.29041290283204	87.30744934082034	-240.4854278564454	114.1980743408204	532.7581787109377	-518.2795410156252	-314.8246459960939	544.5560302734377	-543.322204589844	88.24041748046878	496.4456787109377	-90.68811035156253	123.8169784545899	960.974243164063	-481.3300476074221	170.3880462646485	91.71328735351565	-553.5939941406252	-243.3049163818361	46.29383468627931	-644.5874023437502	84.00385284423831	47.4939651489258	-138.7843933105469	116.7177429199219	512.9808349609377	-519.8630981445315	17.34692764282227	81.65415191650393	-585.1211547851565	18.56819915771485	299.076141357422	-561.6892700195315	-5.341915130615236	58.47431182861331	-368.8556518554689	234.8476867675782	78.01528167724612	-562.6927490234377	-55.15332794189456	82.86712646484378	-592.597351074219	-54.74621963500979	155.3411254882813	-584.7867431640627	-62.71632385253909	75.14056396484378	-520.5088500976565	17.34693908691407	81.65415954589847	-585.1211547851565	-8.311175346374515	-5.032634735107424	1.695977807044984	0.4193822145462038	-5.660294532775881	4.543596267700197	0	0	7.286494255065922	2.76031313691666e-13	1.676869869232179	7.289625167846683	-2.246522665023805	0.7021331191062929	5.170929431915285	-0.1623388081789017	-8.325851440429691	8.525379180908207	4.003748016716965e-13	5.744097232818605	7.718741416931156	0	0	7.679738521575931	-2.314494371414185	4.268862724304201	3.71648955345154	2.314494371414185	-4.268862724304201	3.71648955345154	-6.201381683349613	-4.502183914184572	-91.79618835449222	-6.183736324310306	-5.886664390563967	-90.95850372314456	114.4523391723633	955.2030639648442	-352.8735961914064	123.8169784545899	960.9743041992192	-481.3301086425784	124.873275756836	533.067810058594	-309.6156616210939	114.1980743408204	532.7581787109377	-518.2795410156252	170.6788635253907	95.12612152099612	-268.4046325683595	170.3880462646485	91.71328735351565	-553.5939941406252	
